<svg xmlns="http://www.w3.org/2000/svg" width="15.47" height="21.751">
  <path data-name="Path 64" d="M4.595 3.859H3.152a.351.351 0 0 1-.351-.351V2.456a.351.351 0 0 1 .351-.351h1.443a.351.351 0 0 1 .351.351v1.052a.351.351 0 0 1-.351.351zm-1.092-.7h.742v-.351h-.742zm0 0" fill="#EC6500"/>
  <path data-name="Path 65" d="M5.647 2.807H2.133a.351.351 0 0 1-.351-.351V.351A.351.351 0 0 1 2.133 0h3.514a.351.351 0 0 1 .351.351v2.1a.351.351 0 0 1-.351.356zm-3.163-.7h2.812V.7H2.484zm0 0" fill="#EC6500"/>
  <path data-name="Path 66" d="M7.401 7.367H.352a.351.351 0 0 1-.351-.351 3.875 3.875 0 0 1 7.751 0 .351.351 0 0 1-.351.353zm-6.677-.7h6.3a3.174 3.174 0 0 0-6.3 0zm0 0" fill="#EC6500"/>
  <path data-name="Path 67" d="M7.401 16.84H.351A.351.351 0 0 1 0 16.489V8.414a.351.351 0 0 1 .351-.351h7.05a.351.351 0 0 1 .351.351v8.075a.351.351 0 0 1-.351.351zm-6.7-.7H7.05V8.761H.702zm0 0" fill="#EC6500"/>
  <path data-name="Path 68" d="M6.175 21.751h-4.6a1.581 1.581 0 0 1-1.579-1.579v-2.28a.351.351 0 0 1 .351-.351h7.05a.351.351 0 0 1 .351.351v2.28a1.581 1.581 0 0 1-1.573 1.579zM.702 18.243v1.929a.878.878 0 0 0 .877.877h4.596a.878.878 0 0 0 .877-.877v-1.929zm0 0" fill="#EC6500"/>
  <path data-name="Path 69" d="M7.401 8.765H.351A.351.351 0 0 1 0 8.414V7.033a.366.366 0 0 1 .352-.368H7.4a.351.351 0 0 1 .351.351v1.4a.351.351 0 0 1-.351.351zm-6.7-.7H7.05v-.7H.702zm0 0" fill="#EC6500"/>
  <path data-name="Path 70" d="M7.401 18.243H.351A.351.351 0 0 1 0 17.892v-1.4a.351.351 0 0 1 .351-.351h7.05a.351.351 0 0 1 .351.351v1.4a.351.351 0 0 1-.351.351zm-6.7-.7H7.05v-.7H.702zm0 0" fill="#EC6500"/>
  <path data-name="Path 71" d="M13.013 9.823a.351.351 0 0 1-.351-.351V7.618a5.852 5.852 0 0 0-5.964-5.864H5.646a.351.351 0 1 1 0-.7h1.052a6.546 6.546 0 0 1 6.666 6.566v1.852a.351.351 0 0 1-.351.351zm0 0" fill="#EC6500"/>
  <path data-name="Path 72" d="M3.35 15.086h-.317a.9.9 0 0 1-.894-.894V11.77a.9.9 0 0 1 .894-.894h.317a.9.9 0 0 1 .894.894v2.422a.9.9 0 0 1-.894.894zm-.317-3.508a.192.192 0 0 0-.192.192v2.422a.192.192 0 0 0 .192.192h.317a.192.192 0 0 0 .192-.192V11.77a.192.192 0 0 0-.192-.192zm0 0" fill="#EC6500"/>
  <path data-name="Path 73" d="M5.296 11.93h-.351a.7.7 0 0 1-.7-.7v-.351a.7.7 0 0 1 .7-.7v-.351h-.351a.351.351 0 0 1 0-.7h.351a.7.7 0 0 1 .7.7v.351a.7.7 0 0 1-.7.7v.351h.351a.351.351 0 1 1 0 .7zm0 0" fill="#EC6500"/>
  <path data-name="Path 74" d="M13.847 11.153a.351.351 0 0 1-.351-.351v-.764h-.826v.764a.351.351 0 1 1-.7 0V9.687a.351.351 0 0 1 .351-.351h1.528a.351.351 0 0 1 .351.351v1.115a.351.351 0 0 1-.351.351zm0 0" fill="#EC6500"/>
  <path data-name="Path 75" d="M13.015 15.227a2.389 2.389 0 1 1 2.456-2.388 2.425 2.425 0 0 1-2.456 2.388zm0-4.074a1.688 1.688 0 1 0 1.754 1.686 1.723 1.723 0 0 0-1.754-1.686zm0 0" fill="#EC6500"/>
  <path data-name="Path 76" d="M13.365 13.331h-.7a.351.351 0 0 1-.314-.508l.351-.7a.351.351 0 0 1 .628.314l-.1.194h.134a.351.351 0 1 1 0 .7zm0 0" fill="#EC6500"/>
</svg>
