<svg xmlns="http://www.w3.org/2000/svg" width="22" height="22">
  <path data-name="Path 311" d="M11 0a11 11 0 1 0 11 11A11.012 11.012 0 0 0 11 0zm0 21.267A10.267 10.267 0 1 1 21.267 11 10.278 10.278 0 0 1 11 21.267z" fill="#EC6500"/>
  <path data-name="Path 312" d="M11.367 9.541V5.823a.367.367 0 0 0-.733 0v3.719a1.465 1.465 0 0 0-1.048 1.048H6.967a.367.367 0 0 0 0 .733h2.619a1.464 1.464 0 1 0 1.781-1.781zM11 11.689a.733.733 0 1 1 .733-.733.734.734 0 0 1-.733.733z" fill="#EC6500"/>
  <path data-name="Path 313" d="M11 3.622a.367.367 0 0 0 .367-.367v-.366a.367.367 0 1 0-.733 0v.367a.367.367 0 0 0 .366.366z" fill="#EC6500"/>
  <path data-name="Path 314" d="M11 18.289a.367.367 0 0 0-.367.367v.367a.367.367 0 1 0 .733 0v-.367a.367.367 0 0 0-.366-.367z" fill="#EC6500"/>
  <path data-name="Path 315" d="M19.066 10.589h-.367a.367.367 0 1 0 0 .733h.367a.367.367 0 0 0 0-.733z" fill="#EC6500"/>
  <path data-name="Path 316" d="M3.3 10.589h-.366a.367.367 0 0 0 0 .733h.367a.367.367 0 1 0 0-.733z" fill="#EC6500"/>
  <path data-name="Path 317" d="M16.445 4.993l-.259.259a.367.367 0 1 0 .518.518l.259-.259a.367.367 0 0 0-.518-.518z" fill="#EC6500"/>
  <path data-name="Path 318" d="M5.297 16.142l-.259.259a.367.367 0 1 0 .518.518l.259-.259a.367.367 0 0 0-.518-.518z" fill="#EC6500"/>
  <path data-name="Path 319" d="M16.704 16.141a.367.367 0 1 0-.518.518l.259.259a.367.367 0 0 0 .518-.518z" fill="#EC6500"/>
  <path data-name="Path 320" d="M5.556 4.992a.367.367 0 0 0-.518.518l.259.259a.367.367 0 0 0 .518-.518z" fill="#EC6500"/>
</svg>
